<svg xmlns="http://www.w3.org/2000/svg" viewBox="0 0 800 620" class="hero-yok" aria-hidden="true">
  <defs>
    <filter id="shadow" x="-20%" y="-20%" width="140%" height="140%"><feDropShadow dx="0" dy="16" stdDeviation="18" flood-color="#6b4a2b" flood-opacity=".18"/></filter>
  </defs>
  <g filter="url(#shadow)">
    <ellipse cx="396" cy="354" rx="178" ry="198" fill="#83c98d" stroke="#4f8758" stroke-width="12"/>
    <path d="M246 260 C160 252 110 300 97 370 C91 405 112 423 144 407 C187 386 201 333 246 326" fill="#83c98d" stroke="#4f8758" stroke-width="12" stroke-linecap="round"/>
    <path d="M542 340 C625 334 696 376 714 449 C723 486 694 508 661 487 C618 460 604 414 546 414" fill="#83c98d" stroke="#4f8758" stroke-width="12" stroke-linecap="round"/>
    <path d="M274 176 L316 82 L365 191" fill="#f5a7ba" stroke="#7b5961" stroke-width="10" stroke-linejoin="round"/>
    <path d="M370 154 L415 59 L468 181" fill="#f5a7ba" stroke="#7b5961" stroke-width="10" stroke-linejoin="round"/>
    <path d="M472 180 L548 100 L530 235" fill="#f5a7ba" stroke="#7b5961" stroke-width="10" stroke-linejoin="round"/>
    <circle cx="333" cy="294" r="19" fill="#2e2a24"/>
    <circle cx="464" cy="294" r="19" fill="#2e2a24"/>
    <circle cx="328" cy="288" r="6" fill="#fff"/>
    <circle cx="459" cy="288" r="6" fill="#fff"/>
    <path d="M350 389 Q398 432 452 389" fill="none" stroke="#2e2a24" stroke-width="13" stroke-linecap="round"/>
    <ellipse cx="250" cy="428" rx="30" ry="22" fill="#f7b0bf" opacity=".65"/>
    <ellipse cx="540" cy="428" rx="30" ry="22" fill="#f7b0bf" opacity=".65"/>
    <circle cx="604" cy="234" r="36" fill="#e55b4d" stroke="#9d332a" stroke-width="8"/>
    <path d="M202 508 C137 523 92 563 65 612" fill="none" stroke="#4f8758" stroke-width="18" stroke-linecap="round"/>
  </g>
</svg>